<svg id="visual" viewBox="0 0 900 600" width="900" height="600" xmlns="http://www.w3.org/2000/svg" xmlns:xlink="http://www.w3.org/1999/xlink" version="1.1"><rect x="0" y="0" width="900" height="600" fill="#001122"></rect><defs><linearGradient id="grad1_0" x1="33.3%" y1="100%" x2="100%" y2="0%"><stop offset="20%" stop-color="#291bff" stop-opacity="1"></stop><stop offset="80%" stop-color="#291bff" stop-opacity="1"></stop></linearGradient></defs><defs><linearGradient id="grad1_1" x1="33.3%" y1="100%" x2="100%" y2="0%"><stop offset="20%" stop-color="#291bff" stop-opacity="1"></stop><stop offset="80%" stop-color="#002de4" stop-opacity="1"></stop></linearGradient></defs><defs><linearGradient id="grad1_2" x1="33.3%" y1="100%" x2="100%" y2="0%"><stop offset="20%" stop-color="#0032c7" stop-opacity="1"></stop><stop offset="80%" stop-color="#002de4" stop-opacity="1"></stop></linearGradient></defs><defs><linearGradient id="grad1_3" x1="33.3%" y1="100%" x2="100%" y2="0%"><stop offset="20%" stop-color="#0032c7" stop-opacity="1"></stop><stop offset="80%" stop-color="#0030a6" stop-opacity="1"></stop></linearGradient></defs><defs><linearGradient id="grad1_4" x1="33.3%" y1="100%" x2="100%" y2="0%"><stop offset="20%" stop-color="#002b85" stop-opacity="1"></stop><stop offset="80%" stop-color="#0030a6" stop-opacity="1"></stop></linearGradient></defs><defs><linearGradient id="grad1_5" x1="33.3%" y1="100%" x2="100%" y2="0%"><stop offset="20%" stop-color="#002b85" stop-opacity="1"></stop><stop offset="80%" stop-color="#002463" stop-opacity="1"></stop></linearGradient></defs><defs><linearGradient id="grad1_6" x1="33.3%" y1="100%" x2="100%" y2="0%"><stop offset="20%" stop-color="#001b41" stop-opacity="1"></stop><stop offset="80%" stop-color="#002463" stop-opacity="1"></stop></linearGradient></defs><defs><linearGradient id="grad1_7" x1="33.3%" y1="100%" x2="100%" y2="0%"><stop offset="20%" stop-color="#001b41" stop-opacity="1"></stop><stop offset="80%" stop-color="#001122" stop-opacity="1"></stop></linearGradient></defs><defs><linearGradient id="grad2_0" x1="0%" y1="100%" x2="66.7%" y2="0%"><stop offset="20%" stop-color="#291bff" stop-opacity="1"></stop><stop offset="80%" stop-color="#291bff" stop-opacity="1"></stop></linearGradient></defs><defs><linearGradient id="grad2_1" x1="0%" y1="100%" x2="66.7%" y2="0%"><stop offset="20%" stop-color="#002de4" stop-opacity="1"></stop><stop offset="80%" stop-color="#291bff" stop-opacity="1"></stop></linearGradient></defs><defs><linearGradient id="grad2_2" x1="0%" y1="100%" x2="66.7%" y2="0%"><stop offset="20%" stop-color="#002de4" stop-opacity="1"></stop><stop offset="80%" stop-color="#0032c7" stop-opacity="1"></stop></linearGradient></defs><defs><linearGradient id="grad2_3" x1="0%" y1="100%" x2="66.7%" y2="0%"><stop offset="20%" stop-color="#0030a6" stop-opacity="1"></stop><stop offset="80%" stop-color="#0032c7" stop-opacity="1"></stop></linearGradient></defs><defs><linearGradient id="grad2_4" x1="0%" y1="100%" x2="66.7%" y2="0%"><stop offset="20%" stop-color="#0030a6" stop-opacity="1"></stop><stop offset="80%" stop-color="#002b85" stop-opacity="1"></stop></linearGradient></defs><defs><linearGradient id="grad2_5" x1="0%" y1="100%" x2="66.7%" y2="0%"><stop offset="20%" stop-color="#002463" stop-opacity="1"></stop><stop offset="80%" stop-color="#002b85" stop-opacity="1"></stop></linearGradient></defs><defs><linearGradient id="grad2_6" x1="0%" y1="100%" x2="66.7%" y2="0%"><stop offset="20%" stop-color="#002463" stop-opacity="1"></stop><stop offset="80%" stop-color="#001b41" stop-opacity="1"></stop></linearGradient></defs><defs><linearGradient id="grad2_7" x1="0%" y1="100%" x2="66.7%" y2="0%"><stop offset="20%" stop-color="#001122" stop-opacity="1"></stop><stop offset="80%" stop-color="#001b41" stop-opacity="1"></stop></linearGradient></defs><g transform="translate(900, 600)"><path d="M-405.6 0C-412 -21.4 -418.3 -42.8 -401.5 -57.7C-384.7 -72.6 -344.8 -80.9 -339.7 -99.7C-334.5 -118.5 -364.1 -147.8 -363.9 -166.2C-363.6 -184.6 -333.6 -192.1 -312.1 -200.6C-290.6 -209 -277.5 -218.3 -267.5 -231.8C-257.5 -245.3 -250.5 -263.1 -237.7 -274.3C-224.9 -285.6 -206.2 -290.3 -189.2 -294.4C-172.2 -298.6 -156.9 -302.3 -143.7 -314.7C-130.6 -327.2 -119.7 -348.4 -104.8 -356.9C-89.9 -365.4 -70.9 -361.2 -52.8 -367.2C-34.7 -373.2 -17.3 -389.4 0 -405.6L0 0Z" fill="#001631"></path><path d="M-354.9 0C-360.5 -18.7 -366 -37.5 -351.3 -50.5C-336.6 -63.5 -301.7 -70.8 -297.2 -87.3C-292.7 -103.7 -318.6 -129.3 -318.4 -145.4C-318.2 -161.5 -291.9 -168.1 -273.1 -175.5C-254.3 -182.9 -242.9 -191 -234.1 -202.8C-225.3 -214.7 -219.2 -230.2 -208 -240C-196.8 -249.9 -180.5 -254 -165.6 -257.6C-150.7 -261.3 -137.2 -264.5 -125.8 -275.4C-114.3 -286.3 -104.8 -304.9 -91.7 -312.3C-78.7 -319.8 -62.1 -316.1 -46.2 -321.3C-30.3 -326.6 -15.2 -340.7 0 -354.9L0 0Z" fill="#002052"></path><path d="M-304.2 0C-309 -16.1 -313.7 -32.1 -301.1 -43.3C-288.5 -54.5 -258.6 -60.7 -254.7 -74.8C-250.9 -88.9 -273.1 -110.8 -272.9 -124.6C-272.7 -138.4 -250.2 -144.1 -234.1 -150.4C-217.9 -156.8 -208.2 -163.7 -200.7 -173.9C-193.1 -184 -187.9 -197.3 -178.3 -205.8C-168.7 -214.2 -154.7 -217.7 -141.9 -220.8C-129.2 -224 -117.6 -226.7 -107.8 -236C-98 -245.4 -89.8 -261.3 -78.6 -267.7C-67.4 -274.1 -53.2 -270.9 -39.6 -275.4C-26 -279.9 -13 -292.1 0 -304.2L0 0Z" fill="#002874"></path><path d="M-253.5 0C-257.5 -13.4 -261.4 -26.8 -250.9 -36.1C-240.4 -45.4 -215.5 -50.6 -212.3 -62.3C-209.1 -74.1 -227.5 -92.3 -227.4 -103.9C-227.3 -115.4 -208.5 -120.1 -195.1 -125.4C-181.6 -130.6 -173.5 -136.4 -167.2 -144.9C-161 -153.3 -156.6 -164.4 -148.6 -171.5C-140.6 -178.5 -128.9 -181.4 -118.3 -184C-107.6 -186.6 -98 -188.9 -89.8 -196.7C-81.6 -204.5 -74.8 -217.8 -65.5 -223.1C-56.2 -228.4 -44.3 -225.8 -33 -229.5C-21.7 -233.3 -10.8 -243.4 0 -253.5L0 0Z" fill="#002e96"></path><path d="M-202.8 0C-206 -10.7 -209.1 -21.4 -200.7 -28.9C-192.4 -36.3 -172.4 -40.5 -169.8 -49.9C-167.2 -59.3 -182 -73.9 -181.9 -83.1C-181.8 -92.3 -166.8 -96.1 -156.1 -100.3C-145.3 -104.5 -138.8 -109.1 -133.8 -115.9C-128.8 -122.7 -125.3 -131.6 -118.9 -137.2C-112.4 -142.8 -103.1 -145.1 -94.6 -147.2C-86.1 -149.3 -78.4 -151.1 -71.9 -157.4C-65.3 -163.6 -59.9 -174.2 -52.4 -178.5C-44.9 -182.7 -35.5 -180.6 -26.4 -183.6C-17.3 -186.6 -8.7 -194.7 0 -202.8L0 0Z" fill="#0032b7"></path><path d="M-152.1 0C-154.5 -8 -156.9 -16.1 -150.6 -21.6C-144.3 -27.2 -129.3 -30.4 -127.4 -37.4C-125.4 -44.4 -136.5 -55.4 -136.4 -62.3C-136.4 -69.2 -125.1 -72.1 -117 -75.2C-109 -78.4 -104.1 -81.9 -100.3 -86.9C-96.6 -92 -94 -98.7 -89.1 -102.9C-84.3 -107.1 -77.3 -108.8 -71 -110.4C-64.6 -112 -58.8 -113.4 -53.9 -118C-49 -122.7 -44.9 -130.7 -39.3 -133.8C-33.7 -137 -26.6 -135.5 -19.8 -137.7C-13 -140 -6.5 -146 0 -152.1L0 0Z" fill="#0031d6"></path><path d="M-101.4 0C-103 -5.4 -104.6 -10.7 -100.4 -14.4C-96.2 -18.2 -86.2 -20.2 -84.9 -24.9C-83.6 -29.6 -91 -36.9 -91 -41.5C-90.9 -46.1 -83.4 -48 -78 -50.1C-72.6 -52.3 -69.4 -54.6 -66.9 -58C-64.4 -61.3 -62.6 -65.8 -59.4 -68.6C-56.2 -71.4 -51.6 -72.6 -47.3 -73.6C-43.1 -74.7 -39.2 -75.6 -35.9 -78.7C-32.7 -81.8 -29.9 -87.1 -26.2 -89.2C-22.5 -91.4 -17.7 -90.3 -13.2 -91.8C-8.7 -93.3 -4.3 -97.4 0 -101.4L0 0Z" fill="#0027f2"></path><path d="M-50.7 0C-51.5 -2.7 -52.3 -5.4 -50.2 -7.2C-48.1 -9.1 -43.1 -10.1 -42.5 -12.5C-41.8 -14.8 -45.5 -18.5 -45.5 -20.8C-45.5 -23.1 -41.7 -24 -39 -25.1C-36.3 -26.1 -34.7 -27.3 -33.4 -29C-32.2 -30.7 -31.3 -32.9 -29.7 -34.3C-28.1 -35.7 -25.8 -36.3 -23.7 -36.8C-21.5 -37.3 -19.6 -37.8 -18 -39.3C-16.3 -40.9 -15 -43.6 -13.1 -44.6C-11.2 -45.7 -8.9 -45.2 -6.6 -45.9C-4.3 -46.7 -2.2 -48.7 0 -50.7L0 0Z" fill="#291bff"></path></g><g transform="translate(0, 0)"><path d="M405.6 0C399.1 19.5 392.5 38.9 380.1 54.6C367.6 70.3 349.3 82.3 352.1 103.4C355 124.5 379.1 154.8 369 168.5C358.8 182.2 314.4 179.2 297.8 191.4C281.2 203.6 292.3 230.9 290.2 251.5C288.1 272 272.9 285.7 257.4 297C241.8 308.3 225.9 317.2 209.8 326.4C193.7 335.6 177.3 345.2 159.1 348.4C140.9 351.6 120.8 348.5 103.1 351.2C85.5 353.8 70.3 362.1 53.5 372.2C36.7 382.2 18.4 393.9 0 405.6L0 0Z" fill="#001631"></path><path d="M354.9 0C349.2 17 343.5 34.1 332.6 47.8C321.7 61.6 305.6 72 308.1 90.5C310.6 109 331.7 135.5 322.8 147.4C314 159.4 275.1 156.8 260.6 167.5C246 178.1 255.7 202.1 253.9 220C252.1 238 238.8 250 225.2 259.9C211.6 269.8 197.7 277.5 183.5 285.6C169.4 293.7 155.2 302 139.2 304.8C123.3 307.7 105.7 305 90.2 307.3C74.8 309.6 61.5 316.9 46.8 325.7C32.1 334.4 16.1 344.7 0 354.9L0 0Z" fill="#002052"></path><path d="M304.2 0C299.3 14.6 294.4 29.2 285.1 41C275.7 52.8 261.9 61.7 264.1 77.5C266.3 93.4 284.3 116.1 276.7 126.4C269.1 136.6 235.8 134.4 223.4 143.5C210.9 152.7 219.2 173.2 217.7 188.6C216.1 204 204.7 214.3 193 222.8C181.3 231.2 169.4 237.9 157.3 244.8C145.2 251.7 133 258.9 119.3 261.3C105.7 263.7 90.6 261.4 77.3 263.4C64.1 265.4 52.7 271.6 40.1 279.1C27.6 286.6 13.8 295.4 0 304.2L0 0Z" fill="#002874"></path><path d="M253.5 0C249.4 12.2 245.3 24.3 237.6 34.2C229.8 44 218.3 51.4 220.1 64.6C221.9 77.8 236.9 96.8 230.6 105.3C224.3 113.9 196.5 112 186.1 119.6C175.7 127.2 182.7 144.3 181.4 157.2C180.1 170 170.6 178.6 160.9 185.6C151.1 192.7 141.2 198.2 131.1 204C121 209.8 110.8 215.7 99.4 217.7C88.1 219.8 75.5 217.8 64.4 219.5C53.4 221.1 43.9 226.3 33.4 232.6C23 238.9 11.5 246.2 0 253.5L0 0Z" fill="#002e96"></path><path d="M202.8 0C199.5 9.7 196.3 19.5 190 27.3C183.8 35.2 174.6 41.1 176.1 51.7C177.5 62.3 189.6 77.4 184.5 84.3C179.4 91.1 157.2 89.6 148.9 95.7C140.6 101.8 146.1 115.5 145.1 125.7C144.1 136 136.5 142.9 128.7 148.5C120.9 154.2 112.9 158.6 104.9 163.2C96.8 167.8 88.7 172.6 79.6 174.2C70.4 175.8 60.4 174.3 51.6 175.6C42.7 176.9 35.1 181.1 26.8 186.1C18.4 191.1 9.2 197 0 202.8L0 0Z" fill="#0032b7"></path><path d="M152.1 0C149.7 7.3 147.2 14.6 142.5 20.5C137.9 26.4 131 30.9 132.1 38.8C133.1 46.7 142.2 58.1 138.4 63.2C134.6 68.3 117.9 67.2 111.7 71.8C105.4 76.3 109.6 86.6 108.8 94.3C108.1 102 102.3 107.1 96.5 111.4C90.7 115.6 84.7 118.9 78.7 122.4C72.6 125.9 66.5 129.4 59.7 130.6C52.8 131.9 45.3 130.7 38.7 131.7C32 132.7 26.4 135.8 20.1 139.6C13.8 143.3 6.9 147.7 0 152.1L0 0Z" fill="#0031d6"></path><path d="M101.4 0C99.8 4.9 98.1 9.7 95 13.7C91.9 17.6 87.3 20.6 88 25.8C88.8 31.1 94.8 38.7 92.2 42.1C89.7 45.5 78.6 44.8 74.5 47.8C70.3 50.9 73.1 57.7 72.6 62.9C72 68 68.2 71.4 64.3 74.3C60.4 77.1 56.5 79.3 52.4 81.6C48.4 83.9 44.3 86.3 39.8 87.1C35.2 87.9 30.2 87.1 25.8 87.8C21.4 88.5 17.6 90.5 13.4 93C9.2 95.5 4.6 98.5 0 101.4L0 0Z" fill="#0027f2"></path><path d="M50.7 0C49.9 2.4 49.1 4.9 47.5 6.8C46 8.8 43.7 10.3 44 12.9C44.4 15.6 47.4 19.4 46.1 21.1C44.9 22.8 39.3 22.4 37.2 23.9C35.1 25.4 36.5 28.9 36.3 31.4C36 34 34.1 35.7 32.2 37.1C30.2 38.5 28.2 39.6 26.2 40.8C24.2 42 22.2 43.1 19.9 43.5C17.6 44 15.1 43.6 12.9 43.9C10.7 44.2 8.8 45.3 6.7 46.5C4.6 47.8 2.3 49.2 0 50.7L0 0Z" fill="#291bff"></path></g></svg>