<svg id="visual" viewBox="0 0 900 600" width="900" height="600" xmlns="http://www.w3.org/2000/svg" xmlns:xlink="http://www.w3.org/1999/xlink" version="1.1"><rect x="0" y="0" width="900" height="600" fill="#001122"></rect><defs><linearGradient id="grad1_0" x1="33.3%" y1="0%" x2="100%" y2="100%"><stop offset="20%" stop-color="#291bff" stop-opacity="1"></stop><stop offset="80%" stop-color="#291bff" stop-opacity="1"></stop></linearGradient></defs><defs><linearGradient id="grad1_1" x1="33.3%" y1="0%" x2="100%" y2="100%"><stop offset="20%" stop-color="#291bff" stop-opacity="1"></stop><stop offset="80%" stop-color="#002de4" stop-opacity="1"></stop></linearGradient></defs><defs><linearGradient id="grad1_2" x1="33.3%" y1="0%" x2="100%" y2="100%"><stop offset="20%" stop-color="#0032c7" stop-opacity="1"></stop><stop offset="80%" stop-color="#002de4" stop-opacity="1"></stop></linearGradient></defs><defs><linearGradient id="grad1_3" x1="33.3%" y1="0%" x2="100%" y2="100%"><stop offset="20%" stop-color="#0032c7" stop-opacity="1"></stop><stop offset="80%" stop-color="#0030a6" stop-opacity="1"></stop></linearGradient></defs><defs><linearGradient id="grad1_4" x1="33.3%" y1="0%" x2="100%" y2="100%"><stop offset="20%" stop-color="#002b85" stop-opacity="1"></stop><stop offset="80%" stop-color="#0030a6" stop-opacity="1"></stop></linearGradient></defs><defs><linearGradient id="grad1_5" x1="33.3%" y1="0%" x2="100%" y2="100%"><stop offset="20%" stop-color="#002b85" stop-opacity="1"></stop><stop offset="80%" stop-color="#002463" stop-opacity="1"></stop></linearGradient></defs><defs><linearGradient id="grad1_6" x1="33.3%" y1="0%" x2="100%" y2="100%"><stop offset="20%" stop-color="#001b41" stop-opacity="1"></stop><stop offset="80%" stop-color="#002463" stop-opacity="1"></stop></linearGradient></defs><defs><linearGradient id="grad1_7" x1="33.3%" y1="0%" x2="100%" y2="100%"><stop offset="20%" stop-color="#001b41" stop-opacity="1"></stop><stop offset="80%" stop-color="#001122" stop-opacity="1"></stop></linearGradient></defs><defs><linearGradient id="grad2_0" x1="0%" y1="0%" x2="66.7%" y2="100%"><stop offset="20%" stop-color="#291bff" stop-opacity="1"></stop><stop offset="80%" stop-color="#291bff" stop-opacity="1"></stop></linearGradient></defs><defs><linearGradient id="grad2_1" x1="0%" y1="0%" x2="66.7%" y2="100%"><stop offset="20%" stop-color="#002de4" stop-opacity="1"></stop><stop offset="80%" stop-color="#291bff" stop-opacity="1"></stop></linearGradient></defs><defs><linearGradient id="grad2_2" x1="0%" y1="0%" x2="66.7%" y2="100%"><stop offset="20%" stop-color="#002de4" stop-opacity="1"></stop><stop offset="80%" stop-color="#0032c7" stop-opacity="1"></stop></linearGradient></defs><defs><linearGradient id="grad2_3" x1="0%" y1="0%" x2="66.7%" y2="100%"><stop offset="20%" stop-color="#0030a6" stop-opacity="1"></stop><stop offset="80%" stop-color="#0032c7" stop-opacity="1"></stop></linearGradient></defs><defs><linearGradient id="grad2_4" x1="0%" y1="0%" x2="66.7%" y2="100%"><stop offset="20%" stop-color="#0030a6" stop-opacity="1"></stop><stop offset="80%" stop-color="#002b85" stop-opacity="1"></stop></linearGradient></defs><defs><linearGradient id="grad2_5" x1="0%" y1="0%" x2="66.7%" y2="100%"><stop offset="20%" stop-color="#002463" stop-opacity="1"></stop><stop offset="80%" stop-color="#002b85" stop-opacity="1"></stop></linearGradient></defs><defs><linearGradient id="grad2_6" x1="0%" y1="0%" x2="66.7%" y2="100%"><stop offset="20%" stop-color="#002463" stop-opacity="1"></stop><stop offset="80%" stop-color="#001b41" stop-opacity="1"></stop></linearGradient></defs><defs><linearGradient id="grad2_7" x1="0%" y1="0%" x2="66.7%" y2="100%"><stop offset="20%" stop-color="#001122" stop-opacity="1"></stop><stop offset="80%" stop-color="#001b41" stop-opacity="1"></stop></linearGradient></defs><g transform="translate(900, 0)"><path d="M0 405.6C-20.5 407.4 -41 409.2 -56.8 394.9C-72.5 380.7 -83.5 350.3 -100 340.6C-116.5 330.9 -138.6 342 -154.9 339.3C-171.3 336.6 -181.9 320.3 -203.8 317.2C-225.8 314 -259.2 324 -265.6 306.6C-272.1 289.1 -251.7 244.2 -263 227.9C-274.3 211.6 -317.4 223.9 -337.3 216.8C-357.3 209.7 -354.1 183 -352.9 161.2C-351.8 139.3 -352.6 122.3 -360.8 105.9C-368.9 89.6 -384.3 74 -393 56.5C-401.6 39 -403.6 19.5 -405.6 0L0 0Z" fill="#001631"></path><path d="M0 354.9C-18 356.5 -35.9 358.1 -49.7 345.6C-63.5 333.1 -73.1 306.5 -87.5 298C-102 289.6 -121.3 299.2 -135.6 296.9C-149.9 294.6 -159.1 280.3 -178.3 277.5C-197.6 274.7 -226.8 283.5 -232.4 268.2C-238.1 253 -220.2 213.7 -230.1 199.4C-240 185.2 -277.7 195.9 -295.2 189.7C-312.6 183.4 -309.8 160.2 -308.8 141C-307.8 121.9 -308.6 107 -315.7 92.7C-322.8 78.4 -336.2 64.8 -343.8 49.4C-351.4 34.1 -353.2 17 -354.9 0L0 0Z" fill="#002052"></path><path d="M0 304.2C-15.4 305.6 -30.8 306.9 -42.6 296.2C-54.4 285.5 -62.6 262.7 -75 255.5C-87.4 248.2 -104 256.5 -116.2 254.5C-128.5 252.5 -136.4 240.2 -152.9 237.9C-169.3 235.5 -194.4 243 -199.2 229.9C-204.1 216.8 -188.8 183.1 -197.3 170.9C-205.7 158.7 -238 168 -253 162.6C-268 157.2 -265.6 137.3 -264.7 120.9C-263.8 104.5 -264.5 91.7 -270.6 79.4C-276.7 67.2 -288.2 55.5 -294.7 42.4C-301.2 29.2 -302.7 14.6 -304.2 0L0 0Z" fill="#002874"></path><path d="M0 253.5C-12.8 254.6 -25.7 255.8 -35.5 246.8C-45.3 237.9 -52.2 218.9 -62.5 212.9C-72.8 206.8 -86.6 213.7 -96.8 212.1C-107 210.4 -113.7 200.2 -127.4 198.2C-141.1 196.2 -162 202.5 -166 191.6C-170.1 180.7 -157.3 152.6 -164.4 142.4C-171.5 132.3 -198.4 140 -210.8 135.5C-223.3 131 -221.3 114.4 -220.6 100.7C-219.9 87.1 -220.4 76.4 -225.5 66.2C-230.6 56 -240.2 46.3 -245.6 35.3C-251 24.4 -252.3 12.2 -253.5 0L0 0Z" fill="#002e96"></path><path d="M0 202.8C-10.3 203.7 -20.5 204.6 -28.4 197.5C-36.3 190.3 -41.7 175.1 -50 170.3C-58.3 165.5 -69.3 171 -77.5 169.6C-85.6 168.3 -90.9 160.2 -101.9 158.6C-112.9 157 -129.6 162 -132.8 153.3C-136 144.5 -125.8 122.1 -131.5 113.9C-137.2 105.8 -158.7 112 -168.7 108.4C-178.6 104.8 -177 91.5 -176.5 80.6C-175.9 69.7 -176.3 61.1 -180.4 53C-184.4 44.8 -192.1 37 -196.5 28.2C-200.8 19.5 -201.8 9.7 -202.8 0L0 0Z" fill="#0032b7"></path><path d="M0 152.1C-7.7 152.8 -15.4 153.5 -21.3 148.1C-27.2 142.7 -31.3 131.4 -37.5 127.7C-43.7 124.1 -52 128.2 -58.1 127.2C-64.2 126.2 -68.2 120.1 -76.4 118.9C-84.7 117.7 -97.2 121.5 -99.6 115C-102 108.4 -94.4 91.6 -98.6 85.5C-102.9 79.4 -119 84 -126.5 81.3C-134 78.6 -132.8 68.6 -132.4 60.4C-131.9 52.2 -132.2 45.8 -135.3 39.7C-138.3 33.6 -144.1 27.8 -147.4 21.2C-150.6 14.6 -151.4 7.3 -152.1 0L0 0Z" fill="#0031d6"></path><path d="M0 101.4C-5.1 101.9 -10.3 102.3 -14.2 98.7C-18.1 95.2 -20.9 87.6 -25 85.2C-29.1 82.7 -34.7 85.5 -38.7 84.8C-42.8 84.2 -45.5 80.1 -51 79.3C-56.4 78.5 -64.8 81 -66.4 76.6C-68 72.3 -62.9 61 -65.8 57C-68.6 52.9 -79.3 56 -84.3 54.2C-89.3 52.4 -88.5 45.8 -88.2 40.3C-87.9 34.8 -88.2 30.6 -90.2 26.5C-92.2 22.4 -96.1 18.5 -98.2 14.1C-100.4 9.7 -100.9 4.9 -101.4 0L0 0Z" fill="#0027f2"></path><path d="M0 50.7C-2.6 50.9 -5.1 51.2 -7.1 49.4C-9.1 47.6 -10.4 43.8 -12.5 42.6C-14.6 41.4 -17.3 42.7 -19.4 42.4C-21.4 42.1 -22.7 40 -25.5 39.6C-28.2 39.2 -32.4 40.5 -33.2 38.3C-34 36.1 -31.5 30.5 -32.9 28.5C-34.3 26.5 -39.7 28 -42.2 27.1C-44.7 26.2 -44.3 22.9 -44.1 20.1C-44 17.4 -44.1 15.3 -45.1 13.2C-46.1 11.2 -48 9.3 -49.1 7.1C-50.2 4.9 -50.5 2.4 -50.7 0L0 0Z" fill="#291bff"></path></g><g transform="translate(0, 600)"><path d="M0 -405.6C20.8 -409.4 41.5 -413.3 57.4 -398.9C73.2 -384.5 84.1 -352 100 -340.6C116 -329.3 137 -339.1 153.7 -336.6C170.4 -334 182.9 -319 201.1 -312.9C219.4 -306.9 243.4 -309.8 263.3 -303.8C283.1 -297.8 298.6 -282.8 300.8 -260.6C302.9 -238.5 291.7 -209.3 302 -194.1C312.3 -178.9 344.3 -177.7 365.7 -167C387.1 -156.2 398 -135.9 389.2 -114.3C380.4 -92.7 351.9 -69.8 351.4 -50.5C350.8 -31.3 378.2 -15.6 405.6 0L0 0Z" fill="#001631"></path><path d="M0 -354.9C18.2 -358.3 36.3 -361.6 50.2 -349C64 -336.5 73.6 -308 87.5 -298C101.5 -288.1 119.9 -296.7 134.5 -294.5C149.1 -292.2 160 -279.1 176 -273.8C191.9 -268.5 213 -271.1 230.3 -265.8C247.7 -260.6 261.3 -247.4 263.2 -228.1C265.1 -208.7 255.2 -183.1 264.3 -169.8C273.3 -156.5 301.2 -155.5 320 -146.1C338.7 -136.7 348.2 -118.9 340.5 -100C332.9 -81.1 307.9 -61.1 307.5 -44.2C307 -27.4 331 -13.7 354.9 0L0 0Z" fill="#002052"></path><path d="M0 -304.2C15.6 -307.1 31.1 -310 43 -299.2C54.9 -288.4 63 -264 75 -255.5C87 -247 102.7 -254.4 115.3 -252.4C127.8 -250.5 137.1 -239.2 150.8 -234.7C164.5 -230.2 182.6 -232.4 197.4 -227.9C212.3 -223.3 224 -212.1 225.6 -195.5C227.2 -178.9 218.8 -157 226.5 -145.6C234.3 -134.2 258.2 -133.3 274.3 -125.2C290.3 -117.2 298.5 -101.9 291.9 -85.7C285.3 -69.5 263.9 -52.3 263.5 -37.9C263.1 -23.4 283.7 -11.7 304.2 0L0 0Z" fill="#002874"></path><path d="M0 -253.5C13 -255.9 26 -258.3 35.8 -249.3C45.7 -240.3 52.5 -220 62.5 -212.9C72.5 -205.8 85.6 -212 96.1 -210.4C106.5 -208.7 114.3 -199.4 125.7 -195.6C137.1 -191.8 152.1 -193.7 164.5 -189.9C176.9 -186.1 186.6 -176.7 188 -162.9C189.3 -149.1 182.3 -130.8 188.8 -121.3C195.2 -111.8 215.2 -111.1 228.5 -104.4C241.9 -97.7 248.7 -84.9 243.2 -71.4C237.8 -57.9 220 -43.6 219.6 -31.6C219.3 -19.5 236.4 -9.8 253.5 0L0 0Z" fill="#002e96"></path><path d="M0 -202.8C10.4 -204.7 20.8 -206.6 28.7 -199.4C36.6 -192.3 42 -176 50 -170.3C58 -164.6 68.5 -169.6 76.9 -168.3C85.2 -167 91.4 -159.5 100.6 -156.5C109.7 -153.5 121.7 -154.9 131.6 -151.9C141.5 -148.9 149.3 -141.4 150.4 -130.3C151.5 -119.3 145.8 -104.6 151 -97C156.2 -89.4 172.1 -88.9 182.8 -83.5C193.5 -78.1 199 -67.9 194.6 -57.1C190.2 -46.3 176 -34.9 175.7 -25.3C175.4 -15.6 189.1 -7.8 202.8 0L0 0Z" fill="#0032b7"></path><path d="M0 -152.1C7.8 -153.5 15.6 -155 21.5 -149.6C27.4 -144.2 31.5 -132 37.5 -127.7C43.5 -123.5 51.4 -127.2 57.6 -126.2C63.9 -125.2 68.6 -119.6 75.4 -117.4C82.3 -115.1 91.3 -116.2 98.7 -113.9C106.2 -111.7 112 -106 112.8 -97.7C113.6 -89.4 109.4 -78.5 113.3 -72.8C117.1 -67.1 129.1 -66.7 137.1 -62.6C145.2 -58.6 149.2 -51 145.9 -42.9C142.7 -34.7 132 -26.2 131.8 -18.9C131.6 -11.7 141.8 -5.9 152.1 0L0 0Z" fill="#0031d6"></path><path d="M0 -101.4C5.2 -102.4 10.4 -103.3 14.3 -99.7C18.3 -96.1 21 -88 25 -85.2C29 -82.3 34.2 -84.8 38.4 -84.1C42.6 -83.5 45.7 -79.7 50.3 -78.2C54.8 -76.7 60.9 -77.5 65.8 -76C70.8 -74.4 74.7 -70.7 75.2 -65.2C75.7 -59.6 72.9 -52.3 75.5 -48.5C78.1 -44.7 86.1 -44.4 91.4 -41.7C96.8 -39.1 99.5 -34 97.3 -28.6C95.1 -23.2 88 -17.4 87.8 -12.6C87.7 -7.8 94.6 -3.9 101.4 0L0 0Z" fill="#0027f2"></path><path d="M0 -50.7C2.6 -51.2 5.2 -51.7 7.2 -49.9C9.1 -48.1 10.5 -44 12.5 -42.6C14.5 -41.2 17.1 -42.4 19.2 -42.1C21.3 -41.7 22.9 -39.9 25.1 -39.1C27.4 -38.4 30.4 -38.7 32.9 -38C35.4 -37.2 37.3 -35.3 37.6 -32.6C37.9 -29.8 36.5 -26.2 37.8 -24.3C39 -22.4 43 -22.2 45.7 -20.9C48.4 -19.5 49.7 -17 48.6 -14.3C47.6 -11.6 44 -8.7 43.9 -6.3C43.9 -3.9 47.3 -2 50.7 0L0 0Z" fill="#291bff"></path></g></svg>