<svg id="visual" viewBox="0 0 900 600" width="900" height="600" xmlns="http://www.w3.org/2000/svg" xmlns:xlink="http://www.w3.org/1999/xlink" version="1.1"><rect x="0" y="0" width="900" height="600" fill="#001122"></rect><path d="M0 407L21.5 401C43 395 86 383 128.8 373.7C171.7 364.3 214.3 357.7 257.2 365.5C300 373.3 343 395.7 385.8 398.7C428.7 401.7 471.3 385.3 514.2 374.8C557 364.3 600 359.7 642.8 363.5C685.7 367.3 728.3 379.7 771.2 393.7C814 407.7 857 423.3 878.5 431.2L900 439L900 601L878.5 601C857 601 814 601 771.2 601C728.3 601 685.7 601 642.8 601C600 601 557 601 514.2 601C471.3 601 428.7 601 385.8 601C343 601 300 601 257.2 601C214.3 601 171.7 601 128.8 601C86 601 43 601 21.5 601L0 601Z" fill="#0066ff"></path><path d="M0 408L21.5 415.7C43 423.3 86 438.7 128.8 447.8C171.7 457 214.3 460 257.2 455C300 450 343 437 385.8 439.7C428.7 442.3 471.3 460.7 514.2 459.8C557 459 600 439 642.8 432.2C685.7 425.3 728.3 431.7 771.2 438.3C814 445 857 452 878.5 455.5L900 459L900 601L878.5 601C857 601 814 601 771.2 601C728.3 601 685.7 601 642.8 601C600 601 557 601 514.2 601C471.3 601 428.7 601 385.8 601C343 601 300 601 257.2 601C214.3 601 171.7 601 128.8 601C86 601 43 601 21.5 601L0 601Z" fill="#2059ff"></path><path d="M0 449L21.5 457.3C43 465.7 86 482.3 128.8 482.8C171.7 483.3 214.3 467.7 257.2 469.2C300 470.7 343 489.3 385.8 487.7C428.7 486 471.3 464 514.2 459.5C557 455 600 468 642.8 476.7C685.7 485.3 728.3 489.7 771.2 487.7C814 485.7 857 477.3 878.5 473.2L900 469L900 601L878.5 601C857 601 814 601 771.2 601C728.3 601 685.7 601 642.8 601C600 601 557 601 514.2 601C471.3 601 428.7 601 385.8 601C343 601 300 601 257.2 601C214.3 601 171.7 601 128.8 601C86 601 43 601 21.5 601L0 601Z" fill="#3849ff"></path><path d="M0 528L21.5 529C43 530 86 532 128.8 531.2C171.7 530.3 214.3 526.7 257.2 521.8C300 517 343 511 385.8 508C428.7 505 471.3 505 514.2 501.7C557 498.3 600 491.7 642.8 495C685.7 498.3 728.3 511.7 771.2 512.7C814 513.7 857 502.3 878.5 496.7L900 491L900 601L878.5 601C857 601 814 601 771.2 601C728.3 601 685.7 601 642.8 601C600 601 557 601 514.2 601C471.3 601 428.7 601 385.8 601C343 601 300 601 257.2 601C214.3 601 171.7 601 128.8 601C86 601 43 601 21.5 601L0 601Z" fill="#4f34ff"></path><path d="M0 525L21.5 525.5C43 526 86 527 128.8 533.7C171.7 540.3 214.3 552.7 257.2 555C300 557.3 343 549.7 385.8 548C428.7 546.3 471.3 550.7 514.2 548.3C557 546 600 537 642.8 534.2C685.7 531.3 728.3 534.7 771.2 541.3C814 548 857 558 878.5 563L900 568L900 601L878.5 601C857 601 814 601 771.2 601C728.3 601 685.7 601 642.8 601C600 601 557 601 514.2 601C471.3 601 428.7 601 385.8 601C343 601 300 601 257.2 601C214.3 601 171.7 601 128.8 601C86 601 43 601 21.5 601L0 601Z" fill="#6600ff"></path></svg>